<svg id="Capa_1" data-name="Capa 1" xmlns="http://www.w3.org/2000/svg" viewBox="0 0 372.37 300.81"><defs><style>.cls-1{fill:#009fc2;}.cls-2{fill:#232856;}.cls-3{fill:#e8327f;}.cls-4{fill:#007838;}.cls-5{fill:#010101;}.cls-6{fill:#e63032;}.cls-7{fill:#f9b105;}.cls-10,.cls-11,.cls-8,.cls-9{fill:none;stroke-width:6px;}.cls-8{stroke:#fff;stroke-linecap:round;stroke-linejoin:round;}.cls-9{stroke:#e8327f;}.cls-10,.cls-11,.cls-9{stroke-miterlimit:10;}.cls-10{stroke:#f9b105;}.cls-11{stroke:#009fc2;}</style></defs><path class="cls-1" d="M272.3,85.93c0,.72,0,1.45,0,2.17a86,86,0,0,0-85.9,10.8,86,86,0,0,0-85.91-10.8c0-.72,0-1.45,0-2.17a85.94,85.94,0,0,1,171.87,0Z"/><path class="cls-2" d="M272.27,88.1a86,86,0,0,1-52.2,76.9,85.77,85.77,0,0,0-33.7-66.1,86,86,0,0,1,85.9-10.8Z"/><path class="cls-3" d="M324.5,167.16a85.92,85.92,0,0,1-138.13,68.26,85.77,85.77,0,0,0,33.73-68.26q0-1.08,0-2.16a86,86,0,0,0,52.2-76.9A86,86,0,0,1,324.5,167.16Z"/><path class="cls-4" d="M186.37,98.9A85.75,85.75,0,0,0,152.66,165a85.94,85.94,0,0,1-52.2-76.9,86,86,0,0,1,85.91,10.8Z"/><path class="cls-5" d="M220.07,165a86.12,86.12,0,0,1-67.41,0,85.75,85.75,0,0,1,33.71-66.1A85.77,85.77,0,0,1,220.07,165Z"/><path class="cls-6" d="M220.1,167.16a85.77,85.77,0,0,1-33.73,68.26,85.72,85.72,0,0,1-33.74-68.26q0-1.08,0-2.16a86.12,86.12,0,0,0,67.41,0Q220.1,166.08,220.1,167.16Z"/><path class="cls-7" d="M186.37,235.42A85.94,85.94,0,1,1,100.46,88.1a85.94,85.94,0,0,0,52.2,76.9q0,1.08,0,2.16A85.72,85.72,0,0,0,186.37,235.42Z"/><polygon class="cls-8" points="186.18 61.5 129.5 129.52 152.17 215.13 220.19 215.13 242.87 129.52 186.18 61.5"/><line class="cls-8" x1="186.18" y1="61.5" x2="186.18" y2="127.08"/><circle class="cls-8" cx="186.18" cy="142.39" r="15.31"/><line class="cls-9" x1="186.12" y1="240.45" x2="186.12" y2="297.81"/><rect class="cls-8" x="152.17" y="226.67" width="67.9" height="13.79"/><path class="cls-10" d="M14.92,126.55a171.27,171.27,0,0,0,342.53,0"/><rect class="cls-11" x="3" y="102.71" width="23.84" height="23.84"/><rect class="cls-11" x="345.53" y="102.71" width="23.84" height="23.84"/></svg>