<svg id="Capa_1" data-name="Capa 1" xmlns="http://www.w3.org/2000/svg" viewBox="0 0 49.42 49.42"><defs><style>.cls-1{fill:#ffd100;}.cls-2{fill:#2b2d27;}</style></defs><rect class="cls-1" x="12.21" y="12.21" width="25" height="25"/><path class="cls-2" d="M25.18,24.18c0-12.37,0-23.4.06-24L24.75.08,24.25,0c-.08.52-.09,12.24-.07,24.18-11,0-21.85.06-24.18.07v1c6.63,0,15.66-.05,24.18-.07,0,11,.06,21.9.07,24.24h1c0-6.64-.05-15.69-.07-24.23,12.4,0,23.46,0,24.08.06l.08-.49.08-.5C48.9,24.17,37.15,24.16,25.18,24.18Z"/></svg>